<svg width="140" height="114" viewBox="0 0 140 114" fill="none" xmlns="http://www.w3.org/2000/svg">
<path d="M68.3819 48.5442C68.3819 48.5442 112.055 49.0513 116.22 52.3975C120.385 55.7428 115.131 81.0094 108.379 86.6221C108.379 86.6221 87.1972 82.4173 73.2349 62.0434L68.3819 48.5442Z" fill="#FFD1D1"/>
<path d="M69.7152 43.0014C69.7152 43.0014 87.2112 9.03663 113.853 0.72145C113.853 0.72145 125.162 12.9044 119.964 32.7833C114.768 52.6619 107.264 51.6209 99.7499 52.2308C92.2365 52.8404 72.8206 49.7111 72.8206 49.7111L69.7152 43.0014Z" fill="#FFD1D1"/>
<path d="M68.618 48.4771C68.618 48.4771 34.0723 75.5412 32.7918 80.754C31.5116 85.9681 51.1456 102.929 59.9632 103.289C59.9632 103.289 74.3019 87.0018 72.9939 62.2155L68.618 48.4771Z" fill="#FFD1D1"/>
<path d="M64.3674 44.6519C64.3674 44.6519 29.5585 28.4435 3.03898 38.1568C3.03898 38.1568 1.37292 54.7285 17.6882 67.3015C34.0035 79.8744 39.4084 74.4583 45.8269 70.3425C52.2485 66.2283 65.9636 51.8689 65.9636 51.8689L64.3674 44.6519Z" fill="#FFD1D1"/>
<path d="M66.6555 39.5808C66.5718 39.6098 66.4834 39.6271 66.3915 39.6272C65.9857 39.6296 65.674 39.3311 65.6916 38.9586C65.6951 38.8797 66.0719 30.9263 65.0588 26.8962C64.9674 26.539 65.2042 26.1899 65.6108 26.064C66.0042 25.9626 66.3979 26.1702 66.4883 26.5289C67.5469 30.7344 67.1739 38.6153 67.158 38.9484C67.1434 39.2356 66.9348 39.4819 66.6555 39.5808Z" fill="#A50C0C"/>
<path d="M63.3083 40.5317C63.0558 40.6244 62.7597 40.5374 62.5845 40.2985C62.3755 40.0144 57.4527 33.2967 56.0092 28.0303C55.9121 27.6712 56.1082 27.2889 56.4439 27.2158C56.7825 27.1222 57.135 27.3381 57.2344 27.6965C58.6087 32.7109 63.5337 39.4319 63.5839 39.4999C63.802 39.7945 63.7551 40.2154 63.4798 40.436C63.4261 40.4774 63.3689 40.5106 63.3083 40.5317Z" fill="#A50C0C"/>
<path d="M77.2515 57.3065C80.6726 66.7735 81.2955 75.2168 78.6434 76.1636C75.9917 77.1116 71.0682 70.2048 67.6483 60.7375C64.2272 51.2705 63.6059 42.8281 66.2577 41.88C68.9094 40.932 73.8316 47.8392 77.2515 57.3065Z" fill="#A50C0C"/>
<path d="M71.1657 40.4745C72.1455 43.2016 70.7289 46.2054 68.0031 47.1848C65.2759 48.1645 62.2722 46.748 61.2924 44.0209C60.313 41.295 61.7296 38.2912 64.4554 37.3118C67.1813 36.3324 70.1863 37.7486 71.1657 40.4745Z" fill="#A50C0C"/>
</svg>
