<svg width="126" height="167" viewBox="0 0 126 167" fill="none" xmlns="http://www.w3.org/2000/svg">
<path fill-rule="evenodd" clip-rule="evenodd" d="M117.309 132.748C115.726 141.701 108.074 150.725 96.8096 155.618C85.5447 160.512 73.727 159.946 66.1034 154.992C67.6858 146.039 75.3377 137.015 86.6026 132.122C97.8674 127.228 109.685 127.794 117.309 132.748Z" fill="#247D4A"/>
<path fill-rule="evenodd" clip-rule="evenodd" d="M15.1035 132.748C16.6859 141.701 24.3378 150.725 35.6026 155.618C46.8675 160.512 58.6851 159.946 66.3087 154.992C64.7263 146.039 57.0744 137.015 45.8096 132.122C34.5447 127.228 22.7271 127.794 15.1035 132.748Z" fill="#247D4A"/>
<path d="M66 48C66 48 66 114.66 66 154" stroke="#00421C" stroke-width="3.5" stroke-linecap="round" stroke-linejoin="round"/>
<path d="M57.9145 49.0269C57.9145 49.0269 43.2985 11.5789 53.4185 3.89622C63.5398 -3.78778 91.0878 0.590866 93.5971 10.9442C96.1051 21.2962 78.9718 48.7016 78.9718 48.7016C78.9718 48.7016 105.25 21.5522 116.069 27.3469C126.889 33.1415 128.28 64.1882 121.171 70.0722C114.061 75.9562 85.1945 68.6869 85.1945 68.6869C85.1945 68.6869 127.865 96.3162 116.408 111.338C104.95 126.359 80.4038 126.316 73.7958 120.048C67.1892 113.779 66.1638 79.2442 66.1638 79.2442C66.1638 79.2442 53.2292 114.358 42.7598 115.302C32.2892 116.247 10.5359 101.048 12.9585 91.4255C15.3812 81.8042 47.2945 66.8175 47.2945 66.8175C47.2945 66.8175 6.85048 75.0508 2.17714 63.1308C-2.49486 51.2095 0.198485 24.2602 11.7518 23.0762C23.3065 21.8936 57.9145 49.0269 57.9145 49.0269Z" fill="#F76161"/>
<path d="M62.6958 78.7962C62.6958 78.7962 47.6145 79.0908 48.9279 61.6855C50.2412 44.2802 71.7425 42.8735 81.0252 56.1255C90.3078 69.3775 72.1585 80.4975 62.6958 78.7962Z" fill="#780000"/>
</svg>
